<svg width="200" height="200" viewBox="0 0 200 200" fill="none" xmlns="http://www.w3.org/2000/svg">
<g opacity="0.1">
<path fill-rule="evenodd" clip-rule="evenodd" d="M178.4 99.86L178.3 103.7L178.02 107.52L177.56 111.34L176.9 115.12L176.06 118.88L175.04 122.58L173.84 126.22L172.44 129.8L170.9 133.32L169.16 136.76L167.28 140.1L165.22 143.34L163 146.5L160.64 149.52L158.14 152.42L155.48 155.2L152.7 157.86L149.78 160.36L146.76 162.72L143.62 164.94L140.38 167L137.02 168.88L133.6 170.62L130.08 172.16L126.5 173.56L122.86 174.76L119.14 175.78L115.4 176.64L111.62 177.28L107.8 177.76L103.96 178.04L100.12 178.14L96.2798 178.04L92.4598 177.76L88.6398 177.28L84.8598 176.64L81.0998 175.8L77.3998 174.76L73.7598 173.56L70.1598 172.18L66.6598 170.62L63.2198 168.9L59.8798 167L56.6398 164.94L53.4998 162.74L50.4598 160.36L47.5598 157.86L44.7798 155.2L42.1198 152.42L39.6198 149.5L37.2598 146.48L35.0398 143.34L32.9798 140.1L31.0798 136.76L29.3598 133.32L27.7998 129.8L26.4198 126.22L25.2198 122.58L24.1998 118.88L23.3598 115.12L22.6998 111.34L22.2198 107.52L21.9398 103.7L21.8398 99.86L21.9398 96.02L22.2198 92.18L22.6998 88.36L23.3598 84.58L24.1998 80.84L25.2198 77.12L26.4198 73.48L27.7998 69.9L29.3598 66.38L31.0798 62.96L32.9798 59.62L35.0398 56.36L37.2598 53.22L39.6198 50.2L42.1198 47.28L44.7798 44.5L47.5598 41.84L50.4598 39.34L53.4998 36.98L56.6398 34.76L59.8798 32.7L63.2198 30.82L66.6598 29.08L70.1798 27.52L73.7598 26.14L77.3998 24.94L81.0998 23.92L84.8598 23.08L88.6398 22.42L92.4598 21.96L96.2798 21.66L100.12 21.58L103.96 21.66L107.8 21.94L111.62 22.42L115.4 23.08L119.16 23.92L122.86 24.94L126.5 26.14L130.08 27.52L133.6 29.08L137.04 30.8L140.38 32.7L143.62 34.76L146.76 36.98L149.78 39.34L152.7 41.84L155.48 44.5L158.14 47.28L160.64 50.18L163 53.22L165.22 56.36L167.28 59.6L169.16 62.96L170.9 66.38L172.46 69.9L173.84 73.48L175.04 77.12L176.06 80.84L176.9 84.58L177.56 88.36L178.02 92.18L178.3 96.02L178.4 99.86Z" fill="#FF9700"/>
</g>
<path fill-rule="evenodd" clip-rule="evenodd" d="M67.7 26.58L71.38 8.24L70.18 8L66.5 26.34L67.7 26.58Z" fill="black"/>
<path fill-rule="evenodd" clip-rule="evenodd" d="M35.52 13.36L49.48 33.4L50.48 32.72L36.52 12.66L35.52 13.36ZM18 42.9L39.72 49.06L40.06 47.88L18.34 41.72L18 42.9Z" fill="black"/>
<path fill-rule="evenodd" clip-rule="evenodd" d="M28.8999 68.58L111.28 49.4L129.54 126.8L129.74 127.86L129.84 128.92L129.86 130L129.78 131.04L129.6 132.1L129.34 133.12L129 134.12L128.56 135.1L128.04 136.04L127.42 136.92L126.74 137.76L126 138.52L125.2 139.2L124.34 139.82L123.42 140.36L122.48 140.82L121.48 141.2L120.44 141.48L61.8799 155.12L59.8999 155.42L58.9199 155.44L57.0199 155.26L56.0799 155.06L54.2999 154.46L53.1799 153.92L52.1199 153.26L51.1199 152.5L50.4199 151.86L49.1999 150.42L48.1799 148.78L47.7799 147.9L47.1599 146L28.8999 68.58Z" fill="#FF9700"/>
<path fill-rule="evenodd" clip-rule="evenodd" d="M28.8999 68.58L111.28 49.4L129.54 126.8L129.74 127.86L129.84 128.92L129.86 130L129.78 131.04L129.6 132.1L129.34 133.12L129 134.12L128.56 135.1L128.04 136.04L127.42 136.92L126.74 137.76L126 138.52L125.2 139.2L124.34 139.82L123.42 140.36L122.48 140.82L121.48 141.2L120.44 141.48L61.8799 155.12L59.8999 155.42L58.9199 155.44L57.0199 155.26L56.0799 155.06L54.2999 154.46L53.1799 153.92L52.1199 153.26L51.1199 152.5L50.4199 151.86L49.1999 150.42L48.1799 148.78L47.7799 147.9L47.1599 146L28.8999 68.58ZM30.3799 69.5L110.38 50.86L128.36 127.08L128.54 128.04L128.62 129L128.64 129.96L128.56 130.9L128.42 131.84L128.18 132.78L127.86 133.68L127.48 134.54L127 135.4L126.44 136.2L125.84 136.94L125.18 137.62L124.44 138.24L123.68 138.8L122.84 139.28L121.98 139.7L121.08 140.04L120.16 140.3L61.5999 153.94L60.5199 154.14L59.4199 154.22L58.3199 154.2L57.2199 154.06L56.1799 153.82L55.1599 153.5L54.1999 153.08L53.2799 152.56L52.3999 151.96L51.5999 151.28L50.8599 150.54L50.1799 149.7L49.5799 148.78L49.0599 147.8L48.6599 146.78L48.3599 145.72L30.3799 69.5Z" fill="black"/>
<path fill-rule="evenodd" clip-rule="evenodd" d="M55.0601 38.7H173.52V154.9L173.36 156.9L173.16 157.84L172.56 159.66L172.14 160.52L171.16 162.12L170.36 163.1L169.48 163.98L168.5 164.76L167.72 165.3L166.06 166.16L164.22 166.78L163.28 166.96L161.28 167.12H67.2801L66.2601 167.08L64.3401 166.78L63.4201 166.5L61.6601 165.76L60.0601 164.76L59.0801 163.98L58.2001 163.1L57.4201 162.12L56.8801 161.34L56.0201 159.66L55.4001 157.84L55.2201 156.9L55.0601 154.9V38.7Z" fill="white"/>
<path fill-rule="evenodd" clip-rule="evenodd" d="M55.0601 38.7H173.52V154.9L173.36 156.9L173.16 157.84L172.56 159.66L172.14 160.52L171.16 162.12L170.36 163.1L169.48 163.98L168.5 164.76L167.72 165.3L166.06 166.16L164.22 166.78L163.28 166.96L161.28 167.12H67.2801L66.2601 167.08L64.3401 166.78L63.4201 166.5L61.6601 165.76L60.0601 164.76L59.0801 163.98L58.2001 163.1L57.4201 162.12L56.8801 161.34L56.0201 159.66L55.4001 157.84L55.2201 156.9L55.0601 154.9V38.7ZM56.2801 39.92H172.3V154.9L172.22 156.1L172.04 157.26L171.74 158.38L171.3 159.44L170.8 160.44L170.16 161.4L169.46 162.26L168.66 163.06L167.78 163.78L166.84 164.4L165.84 164.92L164.76 165.34L163.66 165.64L162.5 165.82L161.3 165.9H67.3001L66.0801 165.82L64.9201 165.64L63.8201 165.34L62.7401 164.92L61.7401 164.4L60.8001 163.78L59.9201 163.06L59.1201 162.26L58.4201 161.4L57.8001 160.44L57.2801 159.44L56.8601 158.38L56.5401 157.26L56.3601 156.1L56.3001 154.9L56.2801 39.92Z" fill="black"/>
<path fill-rule="evenodd" clip-rule="evenodd" d="M72 116.98V88.84L72.04 88.18L72.18 87.54L72.38 86.94L72.68 86.38L73.02 85.86L73.9 84.98L74.42 84.64L74.98 84.34L75.58 84.14L76.22 84L76.88 83.96H89.12L89.8 84L90.42 84.14L91.02 84.34L91.6 84.64L92.1 84.98L92.58 85.4L93 85.86L93.34 86.38L93.62 86.94L93.84 87.54L93.96 88.18L94.02 88.86V116.98L93.96 117.64L93.84 118.28L93.62 118.88L93.34 119.44L93 119.96L92.58 120.44L92.1 120.84L91.6 121.2L91.02 121.48L90.42 121.7L89.78 121.82L89.12 121.86H76.88L76.22 121.82L75.58 121.7L74.98 121.48L74.42 121.2L73.9 120.84L73.02 119.96L72.66 119.44L72.38 118.88L72.18 118.28L72.04 117.64L72 116.98Z" fill="white"/>
<path fill-rule="evenodd" clip-rule="evenodd" d="M72 116.98V88.84L72.04 88.18L72.18 87.54L72.38 86.94L72.68 86.38L73.02 85.86L73.9 84.98L74.42 84.64L74.98 84.34L75.58 84.14L76.22 84L76.88 83.96H89.12L89.8 84L90.42 84.14L91.02 84.34L91.6 84.64L92.1 84.98L92.58 85.4L93 85.86L93.34 86.38L93.62 86.94L93.84 87.54L93.96 88.18L94.02 88.86V116.98L93.96 117.64L93.84 118.28L93.62 118.88L93.34 119.44L93 119.96L92.58 120.44L92.1 120.84L91.6 121.2L91.02 121.48L90.42 121.7L89.78 121.82L89.12 121.86H76.88L76.22 121.82L75.58 121.7L74.98 121.48L74.42 121.2L73.9 120.84L73.02 119.96L72.66 119.44L72.38 118.88L72.18 118.28L72.04 117.64L72 116.98ZM73.22 116.98L73.28 117.64L73.46 118.26L73.72 118.82L74.08 119.34L74.52 119.78L75.04 120.14L75.6 120.42L76.22 120.58L76.9 120.64H89.12L89.8 120.58L90.4 120.42L90.98 120.14L91.5 119.78L91.92 119.34L92.3 118.82L92.56 118.26L92.74 117.64L92.8 116.98V88.84L92.74 88.18L92.56 87.56L92.3 87L91.92 86.48L91.5 86.04L90.98 85.68L90.4 85.4L89.8 85.24L89.12 85.18H76.88L76.22 85.24L75.6 85.4L75.04 85.68L74.52 86.04L74.08 86.48L73.72 87L73.44 87.56L73.28 88.18L73.22 88.84V116.98Z" fill="black"/>
<path fill-rule="evenodd" clip-rule="evenodd" d="M133.16 116.98V60.7199L133.2 60.0399L133.32 59.3999L133.54 58.7999L133.82 58.2399L134.18 57.7199L135.06 56.8399L135.58 56.48L136.14 56.2L136.74 56L137.38 55.8599L138.04 55.8199H150.28L150.94 55.8599L151.58 56L152.18 56.2L153.26 56.8399L154.14 57.7199L154.5 58.2399L154.78 58.7999L155 59.3999L155.12 60.0399L155.16 60.7199V116.98L155.12 117.64L155 118.28L154.78 118.88L154.14 119.96L153.26 120.84L152.74 121.2L152.18 121.48L151.58 121.7L150.94 121.82L150.28 121.86H138.04L137.38 121.82L136.74 121.7L136.14 121.48L135.58 121.2L135.06 120.84L134.58 120.44L134.18 119.96L133.82 119.44L133.54 118.88L133.32 118.28L133.2 117.64L133.16 116.98Z" fill="white"/>
<path fill-rule="evenodd" clip-rule="evenodd" d="M133.16 116.98V60.7199L133.2 60.0399L133.32 59.3999L133.54 58.7999L133.82 58.2399L134.18 57.7199L135.06 56.8399L135.58 56.48L136.14 56.2L136.74 56L137.38 55.8599L138.04 55.8199H150.28L150.94 55.8599L151.58 56L152.18 56.2L153.26 56.8399L154.14 57.7199L154.5 58.2399L154.78 58.7999L155 59.3999L155.12 60.0399L155.16 60.7199V116.98L155.12 117.64L155 118.28L154.78 118.88L154.14 119.96L153.26 120.84L152.74 121.2L152.18 121.48L151.58 121.7L150.94 121.82L150.28 121.86H138.04L137.38 121.82L136.74 121.7L136.14 121.48L135.58 121.2L135.06 120.84L134.58 120.44L134.18 119.96L133.82 119.44L133.54 118.88L133.32 118.28L133.2 117.64L133.16 116.98ZM134.38 116.98L134.44 117.64L134.6 118.26L134.88 118.82L135.24 119.34L135.68 119.78L136.2 120.14L136.76 120.42L137.38 120.58L138.04 120.64H150.28L150.94 120.58L151.56 120.42L152.12 120.14L152.64 119.78L153.08 119.34L153.44 118.82L153.72 118.26L153.88 117.64L153.94 116.98V60.7199L153.88 60.0399L153.72 59.4199L153.44 58.8599L153.08 58.3399L152.64 57.8999L152.12 57.5399L151.56 57.2799L150.94 57.0999L150.28 57.0399H138.04L137.38 57.0999L136.76 57.2799L136.2 57.5399L135.68 57.8999L135.24 58.3399L134.88 58.8599L134.6 59.4199L134.44 60.0399L134.38 60.7199V116.98Z" fill="black"/>
<path fill-rule="evenodd" clip-rule="evenodd" d="M102.58 116.98V74.16L102.62 73.48L102.74 72.86L102.96 72.26L103.24 71.68L103.6 71.18L104 70.7L105 69.94L105.56 69.66L106.16 69.44L106.8 69.32L107.46 69.26H119.7L120.34 69.3L120.96 69.44L121.58 69.64L122.14 69.92L122.68 70.26L123.16 70.7L123.6 71.18L123.94 71.72L124.22 72.28L124.44 72.88L124.56 73.52L124.6 74.16V116.98L124.56 117.64L124.42 118.28L124.22 118.88L123.92 119.44L123.58 119.96L123.16 120.44L122.18 121.2L121.62 121.48L121.02 121.7L120.38 121.82L119.7 121.86H107.46L106.8 121.82L106.16 121.7L105 121.2L104.48 120.84L104 120.44L103.6 119.96L103.24 119.44L102.96 118.88L102.74 118.28L102.62 117.64L102.58 116.98Z" fill="white"/>
<path fill-rule="evenodd" clip-rule="evenodd" d="M102.58 116.98V74.16L102.62 73.48L102.74 72.86L102.96 72.26L103.24 71.68L103.6 71.18L104 70.7L105 69.94L105.56 69.66L106.16 69.44L106.8 69.32L107.46 69.26H119.7L120.34 69.3L120.96 69.44L121.58 69.64L122.14 69.92L122.68 70.26L123.16 70.7L123.6 71.18L123.94 71.72L124.22 72.28L124.44 72.88L124.56 73.52L124.6 74.16V116.98L124.56 117.64L124.42 118.28L124.22 118.88L123.92 119.44L123.58 119.96L123.16 120.44L122.18 121.2L121.62 121.48L121.02 121.7L120.38 121.82L119.7 121.86H107.46L106.8 121.82L106.16 121.7L105 121.2L104.48 120.84L104 120.44L103.6 119.96L103.24 119.44L102.96 118.88L102.74 118.28L102.62 117.64L102.58 116.98ZM103.8 116.98L103.86 117.64L104.02 118.26L104.3 118.82L104.66 119.34L105.1 119.78L105.62 120.14L106.18 120.42L106.8 120.58L107.46 120.64H119.7L120.36 120.58L120.98 120.42L121.54 120.14L122.06 119.78L122.5 119.34L122.86 118.82L123.14 118.26L123.3 117.64L123.36 116.98V74.16L123.34 73.68L123.08 72.76L122.62 71.94L121.92 71.24L121.1 70.76L120.18 70.52H106.98L106.52 70.62L105.64 70.98L104.88 71.56L104.56 71.94L104.08 72.76L103.84 73.68L103.8 74.16V116.98Z" fill="black"/>
<path fill-rule="evenodd" clip-rule="evenodd" d="M147.84 136.54H24.2998V154.9L24.4598 156.9L24.9198 158.76L25.2598 159.66L26.1198 161.34L26.6598 162.12L27.4398 163.1L28.3198 163.98L29.2998 164.76L30.8998 165.76L32.6598 166.5L34.5198 166.96L36.5198 167.12H159.68V165.9L158.68 165.82L156.8 165.46L155.9 165.18L154.74 164.7L153.66 164.1L152.66 163.4L151.72 162.6L150.86 161.74L150.1 160.76L149.44 159.72L148.88 158.62L148.42 157.46L147.98 155.62L147.84 153.66V136.54Z" fill="white"/>
<path fill-rule="evenodd" clip-rule="evenodd" d="M147.84 136.54H24.2998V154.9L24.4598 156.9L24.9198 158.76L25.2598 159.66L26.1198 161.34L26.6598 162.12L27.4398 163.1L28.3198 163.98L29.2998 164.76L30.8998 165.76L32.6598 166.5L34.5198 166.96L36.5198 167.12H159.68V165.9L158.68 165.82L156.8 165.46L155.9 165.18L154.74 164.7L153.66 164.1L152.66 163.4L151.72 162.6L150.86 161.74L150.1 160.76L149.44 159.72L148.88 158.62L148.42 157.46L147.98 155.62L147.84 153.66V136.54ZM25.5198 154.9V137.76H146.6V153.66L146.66 154.98L146.84 156.26L147.16 157.5L147.58 158.7L148.1 159.84L148.74 160.94L149.46 161.96L150.28 162.92L151.2 163.8L152.2 164.6L153.28 165.3L154.44 165.9H36.5198L35.3198 165.84L34.1598 165.64L33.0398 165.34L31.9798 164.92L30.9598 164.4L30.0198 163.78L29.1598 163.06L28.3598 162.28L27.6398 161.4L27.0198 160.46L26.4998 159.46L26.0798 158.38L25.7798 157.26L25.5798 156.12L25.5198 154.9Z" fill="black"/>
</svg>
