<svg xmlns="http://www.w3.org/2000/svg" fill="none" viewBox="0 0 100 100" class="design-iconfont" width="128" height="128">
  <path fill-rule="evenodd" clip-rule="evenodd" d="M86 50L85.9541 51.7637L85.8254 53.5274L85.6141 55.282L85.311 57.0273L84.9251 58.7543L84.4474 60.4537L83.8961 62.1347L83.2622 63.779L82.5456 65.3958L81.7463 66.9758L80.8827 68.5098L79.9365 69.998L78.9167 71.4402L77.8326 72.8364L76.675 74.1776L75.4531 75.4544L74.1761 76.6762L72.8348 77.8244L71.4475 78.9084L69.9959 79.928L68.5076 80.8742L66.9733 81.7469L65.3931 82.5369L63.7762 83.2534L62.1225 83.8872L60.4412 84.4384L58.7416 84.916L57.0144 85.3019L55.2689 85.605L53.5233 85.8255L51.7685 85.9541L49.9954 86L48.2315 85.9541L46.4675 85.8255L44.7128 85.6142L42.9672 85.3111L41.2492 84.9252L39.5496 84.4476L37.8683 83.8964L36.2146 83.2626L34.5977 82.5461L33.0267 81.7469L31.4832 80.8834L29.9949 79.9372L28.5525 78.9176L27.1561 77.8336L25.8147 76.6762L24.5377 75.4544L23.3158 74.1776L22.1674 72.8364L21.0833 71.4402L20.0635 69.998L19.1173 68.5098L18.2445 66.9666L17.4544 65.3958L16.7378 63.779L16.1039 62.1347L15.5526 60.4537L15.0749 58.7543L14.689 57.0273L14.3859 55.282L14.1746 53.5274L14.0459 51.7637L14 50L14.0368 48.2363L14.1746 46.4726L14.3859 44.718L14.689 42.9727L15.0749 41.2457L15.5434 39.5463L16.0947 37.8653L16.7378 36.221L17.4544 34.6042L18.2445 33.0242L19.1173 31.4902L20.0635 30.002L21.0833 28.5507L22.1674 27.1636L23.325 25.8224L24.5377 24.5455L25.8147 23.3238L27.1561 22.1756L28.5525 21.0916L29.9949 20.0719L31.4924 19.1258L33.0267 18.2531L34.6069 17.4631L36.2238 16.7466L37.8775 16.1128L39.5496 15.5616L41.2584 15.0931L42.9764 14.6981L44.722 14.4042L46.4675 14.1745L48.2315 14.0459L49.9954 14L51.7685 14.0459L53.5233 14.1745L55.278 14.395L57.0236 14.689L58.7508 15.084L60.4504 15.5524L62.1317 16.1036L63.7854 16.7374L65.3931 17.4539L66.9733 18.2531L68.5168 19.1166L70.0051 20.0628L71.4475 21.0824L72.8439 22.1664L74.1853 23.3238L75.4623 24.5455L76.675 25.8224L77.8326 27.1636L78.9167 28.5507L79.9365 30.002L80.8827 31.4902L81.7555 33.0334L82.5456 34.6134L83.2622 36.221L83.8961 37.8745L84.4474 39.5555L84.9251 41.2549L85.311 42.9819L85.6141 44.7272L85.8254 46.4726L85.9541 48.2363L86 50Z" fill="#1CC28A" opacity=".1"></path>
  <path fill-rule="evenodd" clip-rule="evenodd" d="M18 25.9516L18.016 25.6887L18.0639 25.4418L18.1437 25.2028L18.2556 24.9718L18.3993 24.7647L18.567 24.5735L18.7667 24.3983L18.9743 24.2629L19.2059 24.1434L19.4455 24.0637L19.693 24.0159L19.9566 24H80.0434L80.307 24.0159L80.5625 24.0717L80.8021 24.1513L81.0337 24.2629L81.2334 24.4062L81.4251 24.5735L81.7285 24.9638L81.8403 25.1869L81.9281 25.4259L81.976 25.6808L82 25.9516V37H18V25.9516Z" fill="#fff"></path>
  <path fill-rule="evenodd" clip-rule="evenodd" d="M18 25.9516L18.016 25.6887L18.0639 25.4418L18.1437 25.2028L18.2556 24.9718L18.3993 24.7647L18.567 24.5735L18.7667 24.3983L18.9743 24.2629L19.2059 24.1434L19.4455 24.0637L19.693 24.0159L19.9566 24H80.0434L80.307 24.0159L80.5625 24.0717L80.8021 24.1513L81.0337 24.2629L81.2334 24.4062L81.4251 24.5735L81.7285 24.9638L81.8403 25.1869L81.9281 25.4259L81.976 25.6808L82 25.9516V38H18V25.9516ZM81.5049 25.9516V37.5141H18.4871V25.9516L18.5111 25.6808L18.575 25.4418L18.6868 25.2108L18.8305 25.0037L19.0062 24.8284L19.2139 24.685L19.4375 24.5815L19.6851 24.5098L19.9566 24.4859H80.0435L80.307 24.5098L80.5546 24.5815L80.7862 24.685L80.9858 24.8284L81.1615 25.0037L81.3053 25.2108L81.417 25.4418L81.4809 25.6808L81.5129 25.9516H81.5049Z" fill="#1C1E1E"></path>
  <path fill-rule="evenodd" clip-rule="evenodd" d="M18 74.0205L18.016 74.2952L18.0639 74.5457L18.1517 74.788L18.2635 75.0223L18.4073 75.2324L18.567 75.4182L18.9663 75.7253L19.1899 75.8465L19.4295 75.9273L19.6851 75.9838L19.9566 76H80.0434L80.307 75.9838L80.5625 75.9273L80.8021 75.8465L81.0258 75.7253L81.2334 75.5879L81.4251 75.4182L81.5928 75.2324L81.7285 75.0223L81.8403 74.788L81.9281 74.5457L81.976 74.2952L82 74.0205V37H18V74.0205Z" fill="#fff"></path>
  <path fill-rule="evenodd" clip-rule="evenodd" d="M18 74.0688L18.016 74.3367L18.0639 74.5811L18.1517 74.8176L18.2635 75.0462L18.4073 75.2511L18.567 75.4324L18.9663 75.732L19.1899 75.8502L19.4295 75.929L19.6851 75.9842L19.9566 76H80.0434L80.307 75.9842L80.5625 75.929L80.8021 75.8502L81.0258 75.732L81.2334 75.598L81.4251 75.4324L81.5928 75.2511L81.7285 75.0462L81.8403 74.8176L81.9281 74.5811L81.976 74.3367L82 74.0688V37H18V74.0688ZM81.5049 74.0688V37.4887H18.4871V74.0688L18.5111 74.3367L18.575 74.5732L18.6868 74.8018L18.8305 74.9989L19.0062 75.1723L19.2139 75.3221L19.4375 75.4245L19.6851 75.4955L19.9566 75.5192H80.0435L80.307 75.4955L80.5546 75.4245L80.7782 75.3221L80.9858 75.1723L81.1615 74.9989L81.3053 74.8018L81.417 74.5732L81.4809 74.3367L81.5049 74.0688Z" fill="#1C1E1E"></path>
  <path fill-rule="evenodd" clip-rule="evenodd" d="M26 30.5311L25.9681 30.8751L25.9042 31.1951L25.7923 31.4991L25.6486 31.7871L25.4649 32.0511L25.2572 32.2911L25.0096 32.4991L24.746 32.6751L24.4585 32.8191L24.155 32.9231L23.8275 32.9871L23.484 33.0111L23.1406 32.9871L22.8211 32.9151L22.5176 32.8111L22.23 32.6671L21.9665 32.4831L21.7268 32.2751L21.5192 32.0271L21.3434 31.7631L21.1917 31.4751L21.0879 31.1711L21.024 30.8431L21 30.5071L21.024 30.1631L21.0958 29.8351L21.1997 29.5311L21.3434 29.2431L21.5272 28.9791L21.7348 28.7391L21.9744 28.5311L22.238 28.3471L22.5335 28.2031L22.8371 28.0991L23.1566 28.0351L23.5 28.0111L23.8434 28.0351L24.1709 28.0991L24.4744 28.2111L24.77 28.3551L25.0335 28.5391L25.2732 28.7551L25.4808 28.9951L25.6566 29.2591L25.8083 29.5551L25.9121 29.8591L25.976 30.1871L26 30.5311ZM25.5128 30.5311L25.4968 30.2591L25.4489 30.0031L25.361 29.7471L25.2412 29.5151L25.0974 29.2911L24.9217 29.0911L24.722 28.9151L24.5064 28.7711L24.2668 28.6511L24.0192 28.5631L23.7636 28.5151L23.5 28.4991L23.2364 28.5151L22.9808 28.5631L22.7332 28.6511L22.4936 28.7711L22.278 28.9151L22.0783 29.0911L21.9026 29.3071L21.7508 29.5311L21.639 29.7631L21.5591 30.0191L21.5112 30.2751L21.4952 30.5311L21.5112 30.7951L21.5591 31.0431L21.639 31.2991L21.7508 31.5391L21.9026 31.7631L22.0783 31.9711L22.278 32.1471L22.4936 32.2911L22.7332 32.4111L22.9808 32.4911L23.2364 32.5471L23.5 32.5631L23.7636 32.5471L24.0192 32.4911L24.2668 32.4111L24.5064 32.2911L24.722 32.1471L24.9217 31.9711L25.0974 31.7711L25.2492 31.5551L25.361 31.3151L25.4489 31.0591L25.4968 30.8031L25.5128 30.5311Z" fill="#1C1E1E"></path>
  <path fill-rule="evenodd" clip-rule="evenodd" d="M40 30.5311L39.976 30.8751L39.912 31.1951L39.8 31.4991L39.648 31.7871L39.472 32.0511L39.256 32.2911L39.016 32.4991L38.752 32.6751L38.464 32.8191L38.152 32.9231L37.832 32.9871L37.488 33.0111L37.144 32.9871L36.824 32.9151L36.52 32.8111L36.224 32.6591L35.968 32.4831L35.728 32.2751L35.512 32.0271L35.336 31.7631L35.192 31.4751L35.088 31.1711L35.024 30.8431L35 30.4991L35.024 30.1631L35.088 29.8351L35.2 29.5311L35.344 29.2431L35.52 28.9791L35.736 28.7391L35.976 28.5311L36.24 28.3471L36.528 28.2031L36.84 28.0991L37.16 28.0351L37.504 28.0111L37.832 28.0351L38.152 28.0991L38.464 28.2031L38.752 28.3471L39.024 28.5311L39.272 28.7551L39.496 29.0031L39.672 29.2751L39.816 29.5711L39.92 29.8831L39.984 30.2031L40 30.5311ZM39.512 30.5311L39.496 30.2591L39.448 30.0031L39.368 29.7551L39.248 29.5151L39.104 29.2911L38.92 29.0911L38.72 28.9151L38.504 28.7711L38.272 28.6511L38.024 28.5631L37.768 28.5151L37.504 28.4991L37.24 28.5151L36.984 28.5631L36.736 28.6511L36.496 28.7711L36.28 28.9151L36.08 29.0911L35.896 29.3071L35.752 29.5311L35.64 29.7631L35.552 30.0191L35.504 30.2751L35.488 30.5311L35.504 30.7951L35.552 31.0431L35.64 31.2991L35.752 31.5391L35.896 31.7631L36.08 31.9711L36.28 32.1471L36.496 32.2911L36.736 32.4111L36.984 32.4911L37.24 32.5471L37.504 32.5631L37.768 32.5471L38.024 32.4911L38.272 32.4111L38.504 32.2911L38.72 32.1471L38.92 31.9711L39.104 31.7711L39.248 31.5471L39.368 31.3151L39.448 31.0591L39.496 30.8031L39.512 30.5311Z" fill="#1C1E1E"></path>
  <path fill-rule="evenodd" clip-rule="evenodd" d="M33 30.5311L32.976 30.8751L32.904 31.1951L32.8 31.4991L32.648 31.7871L32.472 32.0511L32.256 32.2911L32.016 32.4991L31.752 32.6751L31.456 32.8191L31.152 32.9231L30.824 32.9871L30.488 33.0111L30.144 32.9871L29.816 32.9151L29.512 32.8111L29.224 32.6671L28.96 32.4831L28.72 32.2751L28.512 32.0271L28.336 31.7631L28.192 31.4751L28.088 31.1711L28.024 30.8431L28 30.5071L28.024 30.1631L28.088 29.8351L28.2 29.5311L28.344 29.2431L28.52 28.9791L28.736 28.7391L28.976 28.5311L29.24 28.3471L29.528 28.2031L29.832 28.0991L30.16 28.0351L30.496 28.0111L30.848 28.0351L31.168 28.0991L31.48 28.2111L31.768 28.3551L32.032 28.5391L32.272 28.7551L32.488 28.9951L32.664 29.2591L32.808 29.5551L32.912 29.8591L32.976 30.1871L33 30.5311ZM32.512 30.5311L32.496 30.2591L32.448 30.0031L32.36 29.7551L32.248 29.5151L32.096 29.2911L31.92 29.0911L31.72 28.9151L31.504 28.7711L31.272 28.6511L31.024 28.5631L30.768 28.5151L30.496 28.4991L30.232 28.5151L29.976 28.5631L29.728 28.6511L29.496 28.7711L29.28 28.9151L29.08 29.0911L28.896 29.3071L28.752 29.5311L28.632 29.7631L28.552 30.0191L28.504 30.2751L28.488 30.5311L28.504 30.7951L28.552 31.0431L28.632 31.2991L28.752 31.5391L28.896 31.7631L29.08 31.9711L29.28 32.1471L29.496 32.2911L29.728 32.4111L29.976 32.4911L30.232 32.5471L30.496 32.5631L30.768 32.5471L31.024 32.4911L31.272 32.4111L31.504 32.2911L31.72 32.1471L31.92 31.9711L32.096 31.7711L32.248 31.5471L32.36 31.3151L32.448 31.0591L32.496 30.8031L32.512 30.5311Z" fill="#1C1E1E"></path>
  <path fill-rule="evenodd" clip-rule="evenodd" d="M64.6492 47.5434L23.8922 48.7122L23.8759 48.2101L64.6411 47.0413L64.6492 47.5434Z" fill="#1C1E1E"></path>
  <path fill-rule="evenodd" clip-rule="evenodd" d="M44.2748 61.9393L23.9004 61.0586L23.8759 61.5607L44.2585 62.4414L44.2748 61.9393Z" fill="#1C1E1E"></path>
  <path fill-rule="evenodd" clip-rule="evenodd" d="M41.0002 71.9647H86.9998V76.5H41.0002V71.9647Z" fill="#fff"></path>
  <path fill-rule="evenodd" clip-rule="evenodd" d="M41.0002 71.9647H86.9998V76.5H41.0002V71.9647ZM41.4983 72.4668V75.9979H86.4936V72.4668H41.4983Z" fill="#1C1E1E"></path>
  <path fill-rule="evenodd" clip-rule="evenodd" d="M66.4621 16.9404L82.9168 72.4091H46.1775L62.6322 16.9404L62.7465 16.6359L62.9017 16.3643L63.0732 16.142L63.2855 15.9445L63.506 15.7881L63.751 15.6646L64.0123 15.5741L64.2736 15.5247L64.5512 15.5L64.8207 15.5247L65.082 15.5741L65.3433 15.6646L65.5883 15.7881L65.817 15.9445L66.0211 16.142L66.2008 16.3643L66.3478 16.6359L66.4621 16.9404Z" fill="#fff"></path>
  <path fill-rule="evenodd" clip-rule="evenodd" d="M82.9168 72.4091H46.1775L62.6322 16.9404L62.7465 16.6359L62.9017 16.3643L63.0732 16.142L63.2855 15.9445L63.506 15.7881L63.751 15.6646L64.0123 15.5741L64.2818 15.5247L64.5512 15.5L64.8207 15.5247L65.0902 15.5741L65.3433 15.6646L65.5883 15.7881L65.817 15.9445L66.0211 16.142L66.2008 16.3643L66.3478 16.6359L66.4621 16.9404L82.7698 71.9071L82.9168 72.4091ZM65.4168 16.2737L65.6128 16.4383L65.7761 16.6277L65.8986 16.8499L65.9885 17.0886L82.2472 71.9071H46.8471L63.114 17.0886L63.1957 16.8499L63.3263 16.6359L63.4815 16.4466L63.6775 16.2819L64.0449 16.0926L64.4451 16.0186L64.8534 16.0432L65.2372 16.1749L65.4168 16.2819V16.2737Z" fill="#1C1E1E"></path>
  <path fill-rule="evenodd" clip-rule="evenodd" d="M51.6896 54.7207H77.4047L72.995 40.7115H56.0911L51.6896 54.7207Z" fill="#1CC28A"></path>
  <path fill-rule="evenodd" clip-rule="evenodd" d="M82.9168 72.4091H46.1775L62.6322 16.9404L62.7465 16.6359L62.9017 16.3643L63.0732 16.142L63.2855 15.9445L63.506 15.7881L63.751 15.6646L64.0123 15.5741L64.2818 15.5247L64.5512 15.5L64.8207 15.5247L65.0902 15.5741L65.3433 15.6646L65.5883 15.7881L65.817 15.9445L66.0211 16.142L66.2008 16.3643L66.3478 16.6359L66.4621 16.9404L82.7698 71.9071L82.9168 72.4091ZM65.4168 16.2737L65.6128 16.4383L65.7761 16.6277L65.8986 16.8499L65.9885 17.0886L82.2472 71.9071H46.8471L63.114 17.0886L63.1957 16.8499L63.3263 16.6359L63.4815 16.4466L63.6775 16.2819L64.0449 16.0926L64.4451 16.0186L64.8534 16.0432L65.2372 16.1749L65.4168 16.2819V16.2737Z" fill="#1C1E1E"></path>
  <path fill-rule="evenodd" clip-rule="evenodd" d="M73.2563 41.1149H56.0258V40.6128H73.2563V41.1149Z" fill="#1C1E1E"></path>
  <path fill-rule="evenodd" clip-rule="evenodd" d="M77.5598 55.1405H51.7304V54.6384H77.5598V55.1405Z" fill="#1C1E1E"></path>
  <path fill-rule="evenodd" clip-rule="evenodd" d="M44.4953 66.4252H83.4966V72.4667H44.4953V66.4252Z" fill="#fff"></path>
  <path fill-rule="evenodd" clip-rule="evenodd" d="M44.4953 66.4252H83.4966V72.4667H44.4953V66.4252ZM44.9934 66.9273V71.9646H82.9985V66.9273H44.9934Z" fill="#1C1E1E"></path>
</svg>